PathFileType	4	(X/Y/Z)	C:/Users/beibeiliu/ov580/test_trc/User3\sequence.50_training_dense_left.trc
DataRate	CameraRate	NumFrames	NumMarkers	Units	OrigDataRate	OrigDataStartFrame	OrigNumFrames
120	120	17	19	mm	120	1	92
Frame#	Time	ThumbCMC			ThumbMCP			ThumbIP			ThumbTip			IndexMCP			IndexPIP			IndexTip			MiddleMCP			MiddlePIP			MiddleTip			RingMCP			RingPIP			RingTip			PinkyMCP			PinkyPIP			PinkyTip			BackHand1			BackHand2			BackHand3	
		X0	Y0	Z0	X1	Y1	Z1	X2	Y2	Z2	X3	Y3	Z3	X4	Y4	Z4	X5	Y5	Z5	X6	Y6	Z6	X7	Y7	Z7	X8	Y8	Z8	X9	Y9	Z9	X10	Y10	Z10	X11	Y11	Z11	X12	Y12	Z12	X13	Y13	Z13	X14	Y14	Z14	X15	Y15	Z15	X16	Y16	Z16	X17	Y17	Z17	X18	Y18	Z18	
0	0	-152.816	-45.3064	67.7741	-158.299	-27.7843	42.2189	-168.544	-14.9011	16.1793	-169.133	-3.51802	-7.88662	-130.484	-74.6759	-1.27546	-135.779	-72.1443	-29.697	-135.677	-58.4427	-59.749	-104.649	-74.2242	-6.76099	-99.3634	-66.2869	-35.6884	-93.1013	-45.5912	-61.8133	-86.692	-50.2118	3.27734	-83.2262	-24.1277	-5.66697	-88.417	3.91667	10.2706	-70.5849	-40.0529	22.1543	-75.7795	-17.4218	22.8836	-92.2043	1.26547	37.8024	-93.719	-82.4011	52.0937	-97.624	-79.1029	88.8038	-127.857	-78.9487	64.8792	
1	0.00833333	-149.04	-43.1076	65.2692	-158.59	-26.2163	41.4541	-164.958	-13.8081	17.7485	-170.671	-0.0461978	-5.2705	-126.239	-70.5916	-3.89426	-130.256	-68.058	-34.2088	-130.341	-57.2037	-61.2333	-99.6609	-69.9448	-9.46892	-94.5802	-63.3986	-33.3254	-85.5144	-43.0615	-61.7502	-77.9499	-47.6538	5.87109	-79.5347	-19.6775	-4.19017	-86.9378	10.6992	15.6133	-68.6266	-39.8264	25.1778	-74.5019	-8.75039	26.5598	-85.5397	7.13191	40.7808	-89.0622	-77.9041	55.8036	-96.2418	-77.8719	85.6544	-125.652	-75.1242	61.781	
2	0.0166667	-147.795	-41.3399	66.9155	-156.394	-25.4062	44.2365	-167.284	-10.7998	14.7065	-166.984	0.579293	-1.52574	-128.953	-67.3645	-7.99415	-128.026	-65.4808	-32.4436	-132.462	-55.388	-58.1425	-95.2962	-69.5333	-5.475	-90.1706	-61.0031	-34.5345	-84.3056	-38.2318	-59.5603	-80.6124	-47.8096	6.12579	-76.7631	-14.1059	-3.12007	-82.9274	10.5928	16.2419	-64.8846	-36.6293	24.1309	-70.3405	-8.53825	26.6715	-84.0728	6.62158	42.1758	-86.7809	-76.9661	55.1801	-95.3969	-74.9239	84.7832	-123.015	-72.964	64.0974	
3	0.025	-149.444	-38.9353	62.1192	-154.169	-23.1533	40.8547	-161.58	-9.12007	15.1919	-158.472	3.3682	-3.16471	-126.233	-65.7387	-6.89493	-131.47	-61.4943	-36.7888	-125.227	-48.748	-56.6334	-98.5355	-68.6025	-4.43088	-89.0061	-56.2922	-36.5317	-81.9407	-23.6796	-48.4263	-80.005	-46.897	3.02798	-73.8383	-16.3303	-5.13836	-81.0731	6.71042	10.7433	-67.6214	-39.7032	23.4714	-70.2261	-10.4886	20.0215	-80.5098	9.21492	36.9905	-88.4634	-74.7343	51.7217	-91.7688	-74.8406	83.994	-124.283	-71.5108	60.6656	
4	0.0333333	-145.445	-37.5451	68.1048	-153.906	-21.6042	39.5092	-160.305	-7.46506	15.4071	-149.211	3.9766	-6.93745	-129.911	-63.6743	-2.51632	-129.646	-59.7021	-32.6626	-126.788	-36.4161	-52.9095	-101.794	-63.3784	-11.2259	-94.2048	-38.995	-33.3845	-91.3324	-6.51931	-23.7507	-77.6694	-47.6453	4.73314	-76.2146	-16.1713	-6.83134	-82.5662	5.13325	16.973	-61.977	-40.2099	21.2123	-66.5028	-16.4869	12.5646	-75.8348	7.69074	27.8405	-89.5613	-75.4259	52.8983	-97.9741	-74.3582	81.7273	-124.506	-69.2341	61.5318	
5	0.0416667	-146.766	-38.0477	66.2934	-155.002	-23.1938	42.5001	-157.446	-10.4383	13.6179	-145.717	1.37257	-6.32834	-132.198	-61.032	-1.1597	-124.828	-49.7021	-33.8903	-123.228	-22.2626	-41.9641	-100.992	-55.7456	-8.84935	-97.5546	-28.6172	-25.7347	-94.4663	-0.73972	-0.340722	-80.3924	-51.7499	4.50833	-75.2838	-21.7878	-7.9295	-80.272	-0.0309011	12.2844	-65.4317	-50.6438	20.3176	-61.9706	-30.9195	4.97849	-67.2777	-2.08037	13.4353	-96.1464	-75.3673	56.8441	-97.7203	-74.7992	84.8159	-130.136	-68.8191	63.793	
6	0.05	-151.538	-39.282	68.3753	-160.953	-24.1011	43.8342	-161.536	-11.3071	20.7994	-150.276	-2.19185	-1.52389	-129.201	-56.2983	-6.71961	-128.603	-37.9545	-28.7812	-119.782	-7.26361	-23.7541	-103.97	-54.7545	-8.97031	-101.67	-28.894	-24.18	-98.3433	2.25159	3.27295	-89.888	-59.5874	4.92951	-79.0077	-36.5208	-15.5358	-82.7646	-3.91205	-1.26751	-66.4806	-59.8694	21.5101	-59.4121	-43.4462	-1.53751	-59.4204	-17.4244	-5.56956	-100.274	-75.0629	56.9774	-98.9263	-77.7432	86.2117	-130.238	-72.2097	66.1743	
7	0.0583333	-153.455	-40.0982	74.3494	-164.337	-25.1866	49.0996	-170.525	-12.7776	18.7432	-161.768	-1.47784	-2.07166	-131.058	-48.3234	-5.87344	-126.457	-18.1563	-20.2331	-118.36	4.34621	-4.60188	-108.647	-59.0923	-9.35168	-102.867	-36.4592	-28.5589	-100.489	2.61755	-11.925	-92.7432	-65.5698	3.89884	-78.5633	-49.5452	-20.2569	-76.1133	-18.5353	-22.2975	-68.0769	-64.0621	19.4852	-60.2654	-55.2668	0.0504451	-53.3018	-31.0577	-17.4862	-97.2268	-77.3065	57.3238	-100.335	-78.6334	83.8358	-134.97	-72.6363	65.1413	
8	0.0666667	-153.384	-40.6048	70.7849	-164.705	-27.2096	46.3585	-170.85	-15.8838	21.641	-167.532	-4.51186	-3.44741	-130.586	-45.2006	-3.27205	-123.862	-11.379	-13.9943	-122.264	12.2847	7.98721	-110.133	-65.948	-6.14868	-100.219	-46.9661	-35.0562	-96.1803	-11.7368	-39.5766	-89.397	-67.5009	2.89828	-78.1595	-56.7783	-21.7619	-74.9777	-28.1411	-37.591	-67.4599	-61.0652	23.3079	-59.1086	-53.1134	2.11108	-48.3191	-35.3414	-17.4248	-99.0818	-76.3836	55.1232	-99.5799	-77.4659	86.7499	-132.378	-71.1219	65.8358	
9	0.075	-152.163	-43.7558	71.6578	-169.352	-28.9155	46.5014	-178.73	-17.6621	23.7439	-174.872	-6.28257	2.09316	-130.506	-45.4188	-4.2086	-123.43	-18.3901	-16.0511	-119.711	10.5192	0.161617	-109.569	-68.8901	-7.96911	-104.556	-58.1799	-36.097	-97.0718	-31.7101	-56.6024	-88.9712	-64.2629	1.31597	-74.5092	-54.1952	-18.6798	-70.2004	-28.804	-37.1633	-69.4965	-54.8985	22.8079	-56.9164	-38.4764	4.07175	-52.4464	-19.3608	-9.47649	-94.913	-77.877	56.4448	-98.824	-78.8435	83.245	-132.533	-73.3416	66.1408	
10	0.0833333	-154.43	-46.0262	69.6836	-166.465	-31.6371	47.4224	-176.981	-19.6374	22.6511	-180.787	-8.03096	0.793796	-127.316	-49.435	-4.67863	-126.481	-23.9599	-20.9568	-118.867	7.12716	-10.6917	-105.465	-67.7691	-7.74124	-101.866	-58.6495	-32.3453	-92.0079	-38.8779	-57.5473	-80.4395	-57.2591	7.39794	-72.7105	-41.4384	-13.8313	-70.7561	-11.4251	-27.0146	-67.9098	-47.3532	25.9905	-60.6783	-24.8616	12.516	-62.5837	-1.18743	6.6541	-93.5278	-77.7868	58.3978	-98.7937	-77.973	84.0779	-129.54	-75.7712	66.0427	
11	0.0916667	-150.988	-46.5402	74.4119	-167.927	-32.3562	50.37	-177.767	-21.1994	25.5188	-177.675	-10.3046	5.07381	-128.051	-54.7431	-3.82909	-126.009	-32.3663	-25.8307	-119.989	-5.57056	-26.63	-103.926	-65.1922	-2.575	-96.8219	-53.1594	-30.8232	-90.4305	-27.9698	-55.1008	-81.3487	-51.3072	12.7701	-76.8043	-28.7083	-5.36716	-73.4091	1.59754	-6.93554	-70.6043	-39.9957	25.7763	-68.8831	-19.9541	21.3732	-72.0341	9.10057	22.5744	-92.6097	-79.8041	58.679	-97.1114	-80.4756	89.0849	-131.38	-74.4951	65.5869	
12	0.1	-150.814	-48.1491	71.13	-161.938	-32.7387	49.9691	-177.482	-20.5779	26.1063	-180.824	-10.1402	5.21089	-128.928	-58.6276	-3.51591	-129.044	-42.9469	-28.278	-122.914	-19.1206	-38.7191	-104.668	-59.2297	-3.72138	-96.1654	-39.7205	-27.9038	-90.2578	-10.6846	-39.2064	-80.2801	-45.7732	14.4666	-80.3313	-17.1639	0.965285	-80.2376	11.4289	8.02192	-68.0103	-40.6749	32.351	-68.612	-17.843	25.7206	-76.5815	11.1218	27.0753	-96.4939	-77.0169	57.576	-100.77	-79.6083	91.839	-130.051	-74.5583	69.187	
13	0.108333	-153.79	-43.9299	75.3614	-166.948	-30.2948	48.9605	-177.058	-19.5335	23.7031	-178.137	-7.62261	2.72149	-127.241	-59.3027	0.993072	-128.179	-49.1064	-26.485	-122.312	-24.4312	-46.7265	-103.978	-50.7795	-4.23729	-99.2765	-23.8172	-20.2268	-95.6997	9.06575	-15.5649	-84.3496	-42.8937	12.4973	-79.8579	-18.5014	3.96944	-81.9158	11.5957	11.0535	-70.2718	-42.2888	26.2856	-65.9402	-16.9181	19.9379	-71.6391	6.6507	19.1537	-97.7418	-76.0861	57.8409	-102.496	-80.3006	89.1028	-132.806	-75.017	71.1338	
14	0.116667	-156.054	-42.7306	74.4572	-165.737	-28.6	52.0376	-175.983	-16.8707	25.7029	-174.97	-7.14901	3.74022	-128.126	-57.9973	-2.1594	-126.236	-47.0212	-26.9543	-120.669	-25.2995	-46.243	-106.678	-46.5157	0.697855	-100.496	-15.4858	-10.0675	-96.0662	18.4367	11.7198	-86.6132	-47.28	11.726	-79.1122	-21.2957	0.551911	-79.5196	6.30876	5.57198	-67.1169	-52.1943	25.3733	-60.4961	-35.654	13.0081	-59.169	-5.48785	4.43303	-97.9834	-79.6686	61.2065	-105.464	-78.6085	88.1668	-133.635	-73.7288	68.6743	
15	0.125	-155.287	-40.1044	74.5225	-162.84	-26.833	49.0129	-173.607	-15.9411	21.0639	-175.589	-4.50622	5.66039	-132.161	-54.2041	-1.4006	-128.589	-37.7956	-26.2022	-113.952	-12.8555	-40.4556	-105.469	-47.9054	2.81147	-99.6206	-11.5705	-4.2412	-95.857	13.9088	19.7497	-88.2553	-56.962	11.1863	-80.2365	-34.6478	-5.04894	-71.732	-5.33995	-5.8081	-71.2181	-66.5284	26.5112	-63.8592	-56.0979	6.98724	-56.0298	-35.484	-10.0517	-104.401	-80.9701	57.9442	-109.37	-82.0868	88.596	-139.417	-74.474	65.8509	
16	0.133333	-156.335	-38.4592	76.1005	-163.806	-25.215	46.589	-171.568	-14.8111	24.2128	-177.448	-5.25468	2.48334	-132.522	-48.3569	0.525427	-120.337	-23.725	-19.4927	-109.025	0.919697	-22.639	-107.841	-52.5193	2.5989	-95.2976	-20.8675	-8.34173	-88.5337	7.77753	12.7441	-95.6542	-63.6946	7.35166	-80.2479	-48.9098	-12.8742	-68.0134	-21.336	-23.0851	-78.7496	-75.8592	25.4884	-69.5613	-74.0015	6.87187	-58.786	-64.3702	-13.9774	-110.226	-84.3048	61.3716	-115.601	-85.9505	85.4919	-141.848	-74.1621	65.1503	
